<svg width="876" height="846" viewBox="0 0 876 846" fill="none" xmlns="http://www.w3.org/2000/svg">
<path fill-rule="evenodd" clip-rule="evenodd" d="M431.408 1.48014C429.707 2.31914 413.813 17.8281 396.087 35.9441L363.858 68.8821L224.522 69.1451L85.185 69.4091L81.343 72.5031C77.772 75.3771 75.428 80.4461 48.276 144.003C31.853 182.444 19.04 213.74 19.026 215.447C18.981 220.785 22.981 227.147 27.962 229.659L32.424 231.909H138.692C231.221 231.909 245.447 231.713 248.73 230.396C251.537 229.27 276.117 204.623 344.967 133.896C395.824 81.6531 437.695 38.9091 438.015 38.9091C438.335 38.9091 481.092 81.7261 533.032 134.058C591.077 192.541 628.714 229.727 630.702 230.558C633.348 231.664 652.97 231.909 738.756 231.909H843.576L848.038 229.659C852.931 227.192 857 220.836 857 215.662C857 213.113 850.527 197.518 810.83 104.432C804.268 89.0451 798.134 75.5941 797.2 74.5411C796.265 73.4881 793.7 71.8001 791.5 70.7901C787.681 69.0361 781.294 68.9521 650.353 68.9311L513.205 68.9091L480.48 35.9651C462.48 17.8451 446.279 2.32014 444.476 1.46514C440.348 -0.493864 435.397 -0.487865 431.408 1.48014ZM354.972 167.693C298.381 225.784 270.836 253.372 267.327 255.473C264.513 257.158 259.801 259.405 256.855 260.466C251.726 262.313 247.371 262.407 153.75 262.689L56 262.983V538.446V813.909H34.712C14.624 813.909 13.172 814.036 8.962 816.159C4.159 818.581 0 824.962 0 829.909C0 834.856 4.159 841.237 8.962 843.659L13.424 845.909H151.712H290V698.007V550.105L276.572 549.757C261.726 549.372 259.854 548.684 255.25 541.919C250.585 535.065 253.668 524.7 261.5 520.909C265.583 518.933 267.673 518.909 438 518.909C608.327 518.909 610.417 518.933 614.5 520.909C625.142 526.061 625.723 539.792 615.619 547.347C613.217 549.143 611.129 549.451 599.431 549.736L586 550.064V697.986V845.909H724.288H862.576L867.038 843.659C871.841 841.237 876 834.856 876 829.909C876 824.962 871.841 818.581 867.038 816.159C862.828 814.036 861.376 813.909 841.288 813.909H820V538.442V262.976L724.25 262.692L628.5 262.409L622.009 260.067C618.439 258.779 613.489 256.37 611.009 254.713C608.529 253.056 568.773 213.723 522.662 167.305C476.551 120.887 438.526 82.9241 438.162 82.9431C437.798 82.9611 400.362 121.099 354.972 167.693ZM455.484 159.547C500.743 168.151 529.821 210.613 522.63 257.6C518.087 287.287 499.332 312.05 473.245 322.808C460.113 328.223 453.815 329.379 437.5 329.371C420.033 329.361 414.401 328.153 400.445 321.422C373.245 308.302 354.965 282.176 352.116 252.35C348.144 210.764 373.563 173.062 413.773 160.9C427.096 156.87 439.318 156.474 455.484 159.547ZM426.276 189.42C416.583 191.527 406.492 197.298 398.8 205.136C387.351 216.8 382.379 230.156 383.251 246.908C384.799 276.666 408.434 299.27 438 299.27C479.472 299.27 505.563 255.713 486.737 217.909C482.4 209.2 472.636 199.507 463.257 194.598C451.305 188.343 439.099 186.634 426.276 189.42ZM210.759 370.904C212.552 371.997 214.912 374.357 216.005 376.15C217.915 379.282 217.993 381.277 217.996 427.511L218 475.613L215.75 478.91C210.981 485.896 210.891 485.909 168.581 485.909C132.675 485.909 130.409 485.801 126.5 483.909C123.848 482.625 121.576 480.499 120.156 477.973C117.947 474.043 117.944 473.962 118.222 426.223C118.499 378.658 118.512 378.393 120.718 375.299C125.221 368.986 125.445 368.957 168.5 368.936C205.674 368.917 207.653 369.01 210.759 370.904ZM389.98 370.661C391.894 371.622 394.482 373.938 395.73 375.807L398 379.205V426.822C398 480.48 398.173 479.184 390.396 483.643C386.551 485.847 385.994 485.876 348.088 485.893L309.676 485.909L305.518 483.473C297.775 478.935 297.895 479.877 298.217 425.909C298.498 378.673 298.512 378.392 300.718 375.299C305.215 368.995 305.498 368.957 348 368.933C382.686 368.914 386.845 369.085 389.98 370.661ZM571.627 371.639C578.048 376.219 578 375.803 578 427.424C578 473.151 577.955 474.216 575.882 477.905C574.717 479.978 572.069 482.626 569.996 483.791C566.34 485.846 565.087 485.909 527.848 485.909C485.059 485.909 485.024 485.904 480.25 478.91L478 475.613V427.409V379.205L480.27 375.807C484.925 368.839 484.876 368.845 529 369.143C568.05 369.406 568.536 369.434 571.627 371.639ZM751.627 371.639C758.048 376.219 758 375.803 758 427.424C758 473.596 757.975 474.182 755.816 478.023C754.424 480.499 752.133 482.634 749.5 483.909C745.591 485.801 743.325 485.909 707.419 485.909C665.109 485.909 665.019 485.896 660.25 478.91L658 475.613L658.004 427.511C658.007 381.277 658.085 379.282 659.995 376.15C661.088 374.357 663.448 371.988 665.241 370.885C668.381 368.953 669.966 368.889 708.5 369.144C748.069 369.406 748.534 369.433 751.627 371.639ZM167.75 399.681L149 399.953V427.431V454.909H168.5H188V427.468C188 412.375 187.662 399.888 187.25 399.718C186.838 399.548 178.063 399.531 167.75 399.681ZM346.25 399.683L329 399.956V427.433V454.909H348.5H368V427.526V400.142L365.75 399.776C364.512 399.574 355.738 399.532 346.25 399.683ZM508.421 399.826C508.189 400.055 508 412.542 508 427.576V454.909H527.5H547L547.001 427.159V399.409H527.922C517.428 399.409 508.653 399.597 508.421 399.826ZM702.25 399.686L688 399.964V427.436V454.909H707.5H727V427.409C727 406.132 726.717 399.885 725.75 399.804C721.838 399.474 714.93 399.44 702.25 399.686ZM210.759 531.904C212.552 532.997 214.912 535.357 216.005 537.15C217.914 540.281 217.993 542.275 217.996 587.925C218.001 642.028 218.23 640.414 209.926 644.686C205.515 646.954 205.366 646.961 166.822 646.686C129.368 646.418 128.055 646.343 125.322 644.317C123.77 643.166 121.488 640.737 120.25 638.919L118 635.613V588.496C118 544.558 118.125 541.143 119.852 537.893C120.87 535.977 123.187 533.396 124.999 532.159C128.281 529.919 128.469 529.909 167.898 529.913C205.651 529.916 207.652 530.009 210.759 531.904ZM751.001 532.159C752.813 533.396 755.139 535.984 756.168 537.909C757.932 541.209 758.023 544.128 757.769 589.087C757.507 635.464 757.444 636.84 755.438 639.525C754.304 641.043 752.134 643.213 750.616 644.347C747.958 646.333 746.443 646.42 709.678 646.697C666.485 647.022 665.057 646.83 660.473 640.084L658 636.445L658.004 588.427C658.007 542.276 658.085 540.282 659.995 537.15C661.088 535.357 663.448 532.997 665.241 531.904C668.348 530.009 670.349 529.916 708.102 529.913C747.531 529.909 747.719 529.919 751.001 532.159ZM321 697.918V845.927L371.75 845.668L422.5 845.409L422.753 697.659L423.007 549.909H372.003H321V697.918ZM453.247 697.659L453.5 845.409L504.25 845.668L555 845.927V697.918V549.909H503.997H452.993L453.247 697.659ZM149 587.887V615.909H168.516H188.032L187.766 588.159L187.5 560.409L168.25 560.137L149 559.866V587.887ZM688.667 560.576C688.3 560.942 688 573.542 688 588.576V615.909H707.5H727V587.909V559.909H708.167C697.808 559.909 689.033 560.209 688.667 560.576ZM207.044 690.905C208.994 691.446 212.144 693.494 214.044 695.454L217.5 699.019L217.778 747.504C218.088 801.73 218.201 800.755 211.144 805.143C207.517 807.398 207.313 807.409 167.823 807.409C129.132 807.409 128.077 807.357 125.323 805.317C123.77 804.166 121.488 801.737 120.25 799.919L118 796.613V749.729C118 699.97 118.107 698.74 122.796 694.564C127.548 690.332 130.821 689.999 168 689.958C188.362 689.936 205.011 690.34 207.044 690.905ZM749.895 692.409C751.763 693.509 754.238 695.679 755.395 697.232C757.468 700.012 757.5 700.808 757.5 748.909C757.5 796.691 757.455 797.823 755.438 800.524C754.304 802.043 752.134 804.213 750.615 805.347C747.934 807.349 746.69 807.409 708.177 807.409C668.687 807.409 668.483 807.398 664.856 805.143C657.799 800.755 657.912 801.73 658.222 747.504L658.5 699.019L661.975 695.434C663.886 693.463 666.811 691.443 668.475 690.947C670.139 690.45 688.375 690.126 709 690.226C744.521 690.399 746.679 690.515 749.895 692.409ZM149 748.887V776.909H168.516H188.032L187.766 749.159L187.5 721.409L168.25 721.137L149 720.866V748.887ZM688.667 721.576C688.3 721.942 688 734.542 688 749.576V776.909H707.5H727V748.909V720.909H708.167C697.808 720.909 689.033 721.209 688.667 721.576Z" fill="black"/>
</svg>
