<svg width="961" height="961" viewBox="0 0 961 961" fill="none" xmlns="http://www.w3.org/2000/svg">
<path fill-rule="evenodd" clip-rule="evenodd" d="M459.442 54.8711C439.944 58.4717 373.951 74.7284 320.696 89.0519L295.867 95.7304L295.111 245.711C294.392 387.831 294.623 395.59 299.492 393.707C320.333 385.635 385.609 367.711 408.854 363.672C436.378 358.892 437.511 358.915 451.208 364.589C462.862 369.414 467.851 374.135 480.201 392.045C499.997 420.745 508.214 425.21 536.848 422.83C578.86 419.337 642.768 402.572 712.661 376.708L753 361.78V211.966C753 129.567 752.533 62.1482 751.963 62.1482C751.393 62.1482 733.318 69.5363 711.8 78.5684C659.529 100.502 598.805 122.716 577.578 127.666C561.685 131.371 559.775 131.266 553.509 126.34C549.767 123.396 542.991 111.362 538.451 99.5996C528.792 74.5619 519.404 60.9305 507.632 54.8448C497.704 49.7111 487.375 49.7169 459.442 54.8711ZM246.637 70.8036C236.294 72.8303 230.303 77.4704 230.189 83.5444C230.166 84.8731 234.089 89.9017 238.908 94.72L247.671 103.481V497.207V890.933L232.336 893.004C214.197 895.454 204.964 899.597 208.895 903.528C210.405 905.038 223.524 907.733 238.05 909.523C275.561 914.14 325.729 907.219 317.12 898.616C316.171 897.667 306.73 895.407 296.139 893.594L276.881 890.297V497.21V104.123L285.644 95.7304C295.511 86.2777 296.884 78.2384 289.295 74.3049C281.362 70.1933 259.086 68.3653 246.637 70.8036Z" fill="black"/>
</svg>
